<svg width="12" height="12" viewBox="0 0 12 12" fill="none" xmlns="http://www.w3.org/2000/svg">
<path d="M5.98516 1.20695L0.445236 6.74688C-0.148412 7.34053 -0.148412 8.30224 0.445236 8.89588L2.34491 10.7956C2.62986 11.0805 3.01692 11.2396 3.4206 11.2396H5.92104H6.14426H11.2401C11.6604 11.2396 12 10.9 12 10.4797C12 10.0594 11.6604 9.71987 11.2401 9.71987H8.29326L11.3969 6.61865C11.9905 6.025 11.9905 5.06329 11.3969 4.46964L8.13654 1.20695C7.54289 0.613307 6.58118 0.613307 5.98753 1.20695H5.98516ZM6.14426 9.72224H5.92104H3.41823L1.51855 7.82257L4.47967 4.86145L7.74236 8.12414L6.14426 9.72224Z" fill="#F9F9F9"/>
</svg>
