<svg width="183" height="88" viewBox="0 0 183 88" fill="none" xmlns="http://www.w3.org/2000/svg">
<path d="M32.8906 73.5865V60.8906H37.6801C38.526 60.8906 39.1637 60.9297 39.6127 61.0143C40.2374 61.1184 40.758 61.3136 41.181 61.6064C41.604 61.8993 41.9424 62.3092 42.1962 62.8298C42.45 63.3569 42.5801 63.9361 42.5801 64.5608C42.5801 65.641 42.2352 66.552 41.5519 67.3004C40.8622 68.0487 39.6258 68.4197 37.8297 68.4197H34.576V73.58H32.8971L32.8906 73.5865ZM34.5695 66.923H37.8492C38.936 66.923 39.7038 66.7212 40.1594 66.3178C40.6149 65.9143 40.8426 65.3417 40.8426 64.6128C40.8426 64.0792 40.706 63.6302 40.4392 63.2463C40.1724 62.8689 39.8145 62.6151 39.3785 62.4979C39.0987 62.4264 38.5716 62.3873 37.8102 62.3873H34.563V66.923H34.5695Z" fill="#F9F9F9"/>
<path d="M50.5479 73.5868V72.2333C49.8321 73.2745 48.856 73.7951 47.6261 73.7951C47.086 73.7951 46.5784 73.691 46.1034 73.4827C45.6349 73.2745 45.2835 73.0142 45.0557 72.6953C44.828 72.383 44.6653 71.9925 44.5742 71.537C44.5091 71.2312 44.4766 70.7431 44.4766 70.0794V64.3789H46.0383V69.4807C46.0383 70.2941 46.0709 70.8407 46.1359 71.1271C46.2336 71.537 46.4418 71.8559 46.7607 72.0901C47.0795 72.3244 47.47 72.4415 47.9385 72.4415C48.407 72.4415 48.843 72.3244 49.253 72.0836C49.6629 71.8429 49.9558 71.5175 50.125 71.1075C50.2942 70.6911 50.3787 70.0924 50.3787 69.3115V64.3854H51.9405V73.5868H50.5479Z" fill="#F9F9F9"/>
<path d="M54.3906 73.5854V64.384H55.7962V65.692C56.473 64.6834 57.4491 64.1758 58.7245 64.1758C59.2777 64.1758 59.7852 64.2734 60.2538 64.4751C60.7223 64.6703 61.0672 64.9371 61.2949 65.256C61.5227 65.5749 61.6854 65.9653 61.783 66.4078C61.8416 66.6941 61.8676 67.2017 61.8676 67.924V73.5789H60.3058V67.9826C60.3058 67.3449 60.2473 66.8698 60.1236 66.5575C60 66.2451 59.7852 65.9913 59.4794 65.8026C59.167 65.6139 58.8091 65.5228 58.3927 65.5228C57.7289 65.5228 57.1563 65.731 56.6747 66.154C56.1932 66.577 55.9524 67.3774 55.9524 68.5552V73.5789H54.3906V73.5854Z" fill="#F9F9F9"/>
<path d="M67.6621 72.1928L67.8898 73.5723C67.4538 73.6634 67.0569 73.709 66.712 73.709C66.1459 73.709 65.7099 73.6179 65.3975 73.4422C65.0852 73.2665 64.8639 73.0257 64.7403 72.7329C64.6166 72.44 64.5515 71.8283 64.5515 70.8913V65.6008H63.4062V64.3904H64.5515V62.1128L66.1003 61.1758V64.3904H67.6686V65.6008H66.1003V70.9824C66.1003 71.4249 66.1263 71.7112 66.1849 71.8414C66.237 71.965 66.3281 72.0691 66.4517 72.1472C66.5753 72.2188 66.751 72.2578 66.9853 72.2578C67.161 72.2578 67.3888 72.2383 67.6686 72.1993L67.6621 72.1928Z" fill="#F9F9F9"/>
<path d="M68.6016 68.9847C68.6016 67.2798 69.0766 66.0174 70.0202 65.1974C70.8141 64.5142 71.7772 64.1758 72.9159 64.1758C74.1784 64.1758 75.2131 64.5923 76.02 65.4187C76.8204 66.2451 77.2238 67.3904 77.2238 68.8546C77.2238 70.0389 77.0481 70.9695 76.6902 71.6462C76.3388 72.323 75.8182 72.8501 75.1415 73.2275C74.4647 73.605 73.7229 73.7937 72.9225 73.7937C71.634 73.7937 70.5928 73.3837 69.7989 72.5573C69.005 71.7308 68.6081 70.54 68.6081 68.9912L68.6016 68.9847ZM70.2024 68.9847C70.2024 70.1626 70.4562 71.0476 70.9702 71.6332C71.4843 72.2189 72.1286 72.5117 72.9094 72.5117C73.6903 72.5117 74.3281 72.2189 74.8421 71.6267C75.3562 71.0345 75.61 70.143 75.61 68.9327C75.61 67.7939 75.3497 66.9349 74.8356 66.3492C74.315 65.7636 73.6773 65.4707 72.9094 65.4707C72.1416 65.4707 71.4843 65.7636 70.9702 66.3427C70.4562 66.9219 70.2024 67.8069 70.2024 68.9847Z" fill="#F9F9F9"/>
<path d="M89.9475 73.5865V72.4282C89.3618 73.3392 88.5093 73.7947 87.377 73.7947C86.6417 73.7947 85.9715 73.593 85.3533 73.1896C84.7416 72.7861 84.26 72.22 83.9216 71.4976C83.5833 70.7753 83.4141 69.9424 83.4141 68.9988C83.4141 68.0552 83.5637 67.2483 83.8761 66.5C84.1819 65.7516 84.644 65.179 85.2556 64.782C85.8673 64.3851 86.5506 64.1834 87.3055 64.1834C87.8586 64.1834 88.3532 64.3005 88.7891 64.5348C89.2251 64.769 89.5765 65.0749 89.8433 65.4458V60.8906H91.3921V73.5865H89.9475ZM85.0214 68.9988C85.0214 70.1766 85.2687 71.0551 85.7632 71.6408C86.2578 72.2265 86.8434 72.5128 87.5202 72.5128C88.197 72.5128 88.7826 72.233 89.2577 71.6733C89.7327 71.1137 89.9735 70.2677 89.9735 69.1225C89.9735 67.8665 89.7327 66.9425 89.2447 66.3503C88.7566 65.7581 88.1644 65.4653 87.4486 65.4653C86.7328 65.4653 86.1797 65.7451 85.7112 66.3113C85.2491 66.8774 85.0149 67.7689 85.0149 68.9858L85.0214 68.9988Z" fill="#F9F9F9"/>
<path d="M100.14 70.6259L101.754 70.8276C101.5 71.7712 101.032 72.5 100.342 73.0206C99.652 73.5412 98.78 73.8015 97.7063 73.8015C96.3592 73.8015 95.292 73.385 94.5046 72.5586C93.7173 71.7321 93.3203 70.5673 93.3203 69.0706C93.3203 67.5739 93.7173 66.3245 94.5177 65.4655C95.3181 64.6066 96.3462 64.1836 97.6217 64.1836C98.8971 64.1836 99.8537 64.6001 100.635 65.4395C101.415 66.279 101.806 67.4568 101.806 68.973C101.806 69.0641 101.806 69.2008 101.799 69.3895H94.9406C94.9992 70.3981 95.2855 71.1725 95.7996 71.7126C96.3137 72.2527 96.9579 72.5195 97.7193 72.5195C98.2919 72.5195 98.78 72.3699 99.1835 72.0705C99.5869 71.7712 99.9058 71.2896 100.147 70.6324L100.14 70.6259ZM95.0187 68.1075H100.153C100.081 67.3332 99.8862 66.754 99.5609 66.3636C99.0663 65.7649 98.4221 65.4655 97.6282 65.4655C96.9124 65.4655 96.3072 65.7063 95.8256 66.1814C95.3376 66.6629 95.0643 67.3006 95.0122 68.101L95.0187 68.1075Z" fill="#F9F9F9"/>
<path d="M111.196 73.5881L107.695 64.3867H109.342L111.313 69.8985C111.528 70.4906 111.723 71.1088 111.906 71.7531C112.042 71.265 112.237 70.6859 112.485 70.0026L114.528 64.3867H116.129L112.647 73.5881H111.19H111.196Z" fill="#F9F9F9"/>
<path d="M123.804 70.6259L125.418 70.8276C125.164 71.7712 124.696 72.5 124.006 73.0206C123.316 73.5412 122.444 73.8015 121.37 73.8015C120.023 73.8015 118.956 73.385 118.169 72.5586C117.381 71.7321 116.984 70.5673 116.984 69.0706C116.984 67.5739 117.381 66.3245 118.182 65.4655C118.976 64.6131 120.01 64.1836 121.286 64.1836C122.561 64.1836 123.518 64.6001 124.299 65.4395C125.08 66.279 125.47 67.4568 125.47 68.973C125.47 69.0641 125.47 69.2008 125.463 69.3895H118.605C118.663 70.3981 118.95 71.1725 119.464 71.7126C119.978 72.2527 120.622 72.5195 121.383 72.5195C121.956 72.5195 122.444 72.3699 122.848 72.0705C123.251 71.7712 123.57 71.2896 123.811 70.6324L123.804 70.6259ZM118.683 68.1075H123.817C123.746 67.3332 123.55 66.754 123.225 66.3636C122.73 65.7649 122.086 65.4655 121.292 65.4655C120.576 65.4655 119.971 65.7063 119.49 66.1814C119.002 66.6629 118.728 67.3006 118.676 68.101L118.683 68.1075Z" fill="#F9F9F9"/>
<path d="M127.375 73.5854V64.384H128.781V65.692C129.457 64.6834 130.433 64.1758 131.709 64.1758C132.262 64.1758 132.77 64.2734 133.238 64.4751C133.707 64.6703 134.052 64.9371 134.279 65.256C134.507 65.5749 134.67 65.9653 134.767 66.4078C134.826 66.6941 134.852 67.2017 134.852 67.924V73.5789H133.29V67.9826C133.29 67.3449 133.232 66.8698 133.108 66.5575C132.984 66.2451 132.77 65.9913 132.464 65.8026C132.151 65.6139 131.794 65.5228 131.377 65.5228C130.713 65.5228 130.141 65.731 129.659 66.154C129.178 66.577 128.937 67.3774 128.937 68.5552V73.5789H127.375V73.5854Z" fill="#F9F9F9"/>
<path d="M140.639 72.1928L140.866 73.5723C140.43 73.6634 140.033 73.709 139.689 73.709C139.122 73.709 138.686 73.6179 138.374 73.4422C138.062 73.2665 137.84 73.0257 137.717 72.7329C137.593 72.44 137.528 71.8283 137.528 70.8913V65.6008H136.383V64.3904H137.528V62.1128L139.077 61.1758V64.3904H140.645V65.6008H139.077V70.9824C139.077 71.4249 139.103 71.7112 139.161 71.8414C139.214 71.965 139.305 72.0691 139.428 72.1472C139.552 72.2188 139.728 72.2578 139.962 72.2578C140.138 72.2578 140.365 72.2383 140.645 72.1993L140.639 72.1928Z" fill="#F9F9F9"/>
<path d="M148.168 72.4558C147.588 72.9438 147.035 73.2952 146.502 73.4969C145.968 73.6987 145.395 73.8028 144.784 73.8028C143.775 73.8028 142.994 73.5555 142.454 73.0609C141.914 72.5664 141.641 71.9352 141.641 71.1673C141.641 70.7183 141.745 70.3083 141.946 69.9309C142.155 69.56 142.422 69.2606 142.753 69.0329C143.085 68.8051 143.456 68.6359 143.873 68.5188C144.179 68.4407 144.641 68.3626 145.259 68.2845C146.515 68.1349 147.445 67.9527 148.037 67.7444C148.037 67.5297 148.044 67.393 148.044 67.3345C148.044 66.6967 147.894 66.2542 147.601 65.9939C147.204 65.6425 146.612 65.4668 145.825 65.4668C145.09 65.4668 144.549 65.597 144.198 65.8508C143.847 66.1111 143.593 66.5601 143.424 67.2173L141.901 67.0091C142.038 66.3584 142.265 65.8313 142.584 65.4278C142.903 65.0243 143.359 64.7185 143.964 64.4972C144.562 64.2825 145.259 64.1719 146.053 64.1719C146.847 64.1719 147.478 64.263 147.966 64.4517C148.454 64.6404 148.818 64.8682 149.046 65.148C149.274 65.4278 149.436 65.7792 149.534 66.2087C149.586 66.4755 149.612 66.9505 149.612 67.6468V69.7227C149.612 71.1738 149.645 72.0913 149.71 72.4753C149.775 72.8592 149.905 73.2301 150.107 73.5815H148.48C148.317 73.2562 148.213 72.8787 148.168 72.4493V72.4558ZM148.037 68.9743C147.471 69.2021 146.625 69.4038 145.493 69.5665C144.855 69.6576 144.4 69.7617 144.133 69.8788C143.866 69.996 143.664 70.1652 143.515 70.3864C143.372 70.6077 143.3 70.8549 143.3 71.1283C143.3 71.5447 143.456 71.8896 143.775 72.1694C144.087 72.4493 144.549 72.5859 145.155 72.5859C145.76 72.5859 146.287 72.4558 146.755 72.189C147.224 71.9287 147.569 71.5643 147.784 71.1087C147.953 70.7573 148.037 70.2367 148.037 69.547V68.9743Z" fill="#F9F9F9"/>
<path d="M24.5395 30.0251H18.3184V44.003C18.3184 46.4367 19.7435 46.9638 21.9365 46.9638C22.763 46.9638 23.6545 46.8467 24.5395 46.8467V54.2521C22.6979 54.3107 20.8693 54.5449 19.0277 54.5449C10.438 54.5449 8.24502 52.0591 8.24502 43.7036V30.0186H3.15625V23.4983H8.25152V17.9865L18.3249 14.1992V23.4983H24.546V30.0186L24.5395 30.0251Z" fill="#F9F9F9"/>
<path d="M163.763 22.6146C158.128 22.6146 153.085 25.2305 150.078 29.4668V23.4996H143.857V14.207L133.784 17.9943V23.5061H128.689V26.3693C126.053 23.3434 121.329 22.6211 116.487 22.6211C112.993 22.6211 109.44 23.2132 106.713 24.7555C103.987 26.3498 102.093 28.9592 101.917 32.9873H111.334C111.809 30.3844 113.585 29.1349 116.37 29.1349C118.446 29.1349 121.231 30.0265 121.231 32.3301C121.231 34.2237 120.281 34.8224 118.563 35.1738C112.726 36.3646 104.169 36.0263 101.501 41.7072V35.8831C101.501 30.0199 100.434 22.6146 90.6662 22.6146C86.521 22.6146 83.4885 24.3325 81.0613 27.5927C79.4019 23.8575 75.966 22.6146 72.1201 22.6146C68.2743 22.6146 65.1312 24.6318 63.2962 27.7098H63.1725V23.4996H53.3984V54.2469H63.4719V39.2604C63.4719 32.9808 65.0141 30.9049 68.6322 30.9049C71.3523 30.9049 72.4195 33.1565 72.4195 36.7746V54.2469H82.4929V39.2018C82.4929 34.2237 82.9094 30.9049 87.2303 30.9049C89.8462 30.9049 91.434 32.8637 91.434 36.1824V54.2469H101.507V49.9911C103.089 53.479 106.778 55.1384 111.164 55.1384C114.835 55.1384 118.687 54.0712 121.29 51.3511C121.407 52.3532 121.531 53.3033 121.882 54.2534H132.007C130.83 51.8261 130.83 48.9824 130.83 46.373V32.9287C130.83 31.855 130.719 30.8919 130.517 30.0265H133.784V43.7115C133.784 52.0669 135.977 54.5527 144.567 54.5527C146.408 54.5527 148.237 54.3185 150.078 54.2599V48.8002C152.987 52.8934 157.887 55.1449 163.998 55.1449C170.87 55.1449 177.448 52.0669 179.284 44.9609H169.861C168.911 47.2124 166.542 48.3382 164.115 48.3382C159.846 48.3382 157.419 45.553 157.243 41.3493H179.817C180.286 30.918 174.78 22.6276 163.757 22.6276L163.763 22.6146ZM114.952 48.9239C112.7 48.9239 110.748 47.9152 110.748 45.4229C110.748 42.9306 112.642 42.0521 114.893 41.512C117.086 40.9198 119.696 40.7441 121.114 39.8526C121.348 46.1908 119.754 48.9174 114.952 48.9174V48.9239ZM147.476 46.9651C145.283 46.9651 143.864 46.438 143.864 44.0043V30.0265H149.727C148.12 32.5058 147.176 35.4796 147.176 38.7919C147.176 41.9024 147.807 44.616 148.946 46.9001C148.445 46.9326 147.951 46.9651 147.476 46.9651ZM157.25 35.7139C157.842 31.9787 160.21 29.4343 163.77 29.4343C167.141 29.4343 169.575 32.2845 169.757 35.7139H157.256H157.25Z" fill="#F9F9F9"/>
<path d="M56.0371 38.3434C56.0371 28.7125 48.2282 20.9102 38.5973 20.9102C28.9664 20.9102 21.1641 28.719 21.1641 38.3434C21.1641 47.9678 28.9729 55.7767 38.5973 55.7767C48.2217 55.7767 56.0371 47.9678 56.0371 38.3434Z" fill="#FB523D"/>
<path d="M39.7648 34.2828C39.7648 34.2828 36.0686 32.3436 35.2422 31.0812C37.0577 31.836 39.6542 32.1158 40.7214 31.7254C41.7821 31.3349 41.1249 27.3069 40.1813 26.4414C41.3266 26.7212 43.2918 29.9554 43.4805 30.9836C44.4306 30.079 46.1225 29.3697 48.6539 28.745C45.6084 31.1462 44.782 32.5193 44.9382 33.2676C46.8318 33.4694 49.7406 35.76 49.7406 36.6645C47.5802 34.8424 44.6974 35.4346 44.1443 35.825C44.4176 37.5625 44.0922 40.5949 43.8579 41.1871C42.9925 39.0592 42.4849 37.4779 41.5413 36.4107C40.7995 35.5778 38.0273 38.7338 37.8256 39.287C37.5979 38.5777 38.6651 35.2654 39.7713 34.2828H39.7648Z" fill="#F9F9F9"/>
</svg>
