<svg width="150" height="150" viewBox="0 0 150 150" fill="none" xmlns="http://www.w3.org/2000/svg">
<g clip-path="url(#clip0_8544_77000)">
<path d="M0 0V150" stroke="#353639" stroke-miterlimit="10"/>
<path d="M150 0V150" stroke="#353639" stroke-miterlimit="10"/>
<path d="M0 150H150" stroke="#353639" stroke-width="0.5" stroke-miterlimit="10"/>
<path d="M0 0H150" stroke="#353639" stroke-miterlimit="10"/>
<path d="M75 0V150" stroke="#353639" stroke-miterlimit="10"/>
<path d="M0 75H150" stroke="#353639" stroke-miterlimit="10"/>
<path d="M5 -1H1V-5C1 -5.6 0.6 -6 0 -6C-0.6 -6 -1 -5.6 -1 -5V-1H-5C-5.6 -1 -6 -0.6 -6 0C-6 0.6 -5.6 1 -5 1H-1V5C-1 5.6 -0.6 6 0 6C0.6 6 1 5.6 1 5V1H5C5.6 1 6 0.6 6 0C6 -0.6 5.6 -1 5 -1Z" fill="#494A4C"/>
<path d="M155 -1H151V-5C151 -5.6 150.6 -6 150 -6C149.4 -6 149 -5.6 149 -5V-1H145C144.4 -1 144 -0.6 144 0C144 0.6 144.4 1 145 1H149V5C149 5.6 149.4 6 150 6C150.6 6 151 5.6 151 5V1H155C155.6 1 156 0.6 156 0C156 -0.6 155.6 -1 155 -1Z" fill="#494A4C"/>
<path d="M5 149H1V145C1 144.4 0.6 144 0 144C-0.6 144 -1 144.4 -1 145V149H-5C-5.6 149 -6 149.4 -6 150C-6 150.6 -5.6 151 -5 151H-1V155C-1 155.6 -0.6 156 0 156C0.6 156 1 155.6 1 155V151H5C5.6 151 6 150.6 6 150C6 149.4 5.6 149 5 149Z" fill="#494A4C"/>
<path d="M155 149H151V145C151 144.4 150.6 144 150 144C149.4 144 149 144.4 149 145V149H145C144.4 149 144 149.4 144 150C144 150.6 144.4 151 145 151H149V155C149 155.6 149.4 156 150 156C150.6 156 151 155.6 151 155V151H155C155.6 151 156 150.6 156 150C156 149.4 155.6 149 155 149Z" fill="#494A4C"/>
<path d="M75 77.5C76.3807 77.5 77.5 76.3807 77.5 75C77.5 73.6193 76.3807 72.5 75 72.5C73.6193 72.5 72.5 73.6193 72.5 75C72.5 76.3807 73.6193 77.5 75 77.5Z" fill="#494A4C"/>
</g>
<defs>
<clipPath id="clip0_8544_77000">
<rect width="150" height="150" fill="white"/>
</clipPath>
</defs>
</svg>
