<svg width="594" height="104" viewBox="0 0 594 104" fill="none" xmlns="http://www.w3.org/2000/svg">
<path d="M44.3696 45.1738H31.4696V75.8647C31.4696 81.4716 34.4192 82.6977 38.964 82.6977C40.6855 82.6977 42.5218 82.4295 44.3696 82.4295V99.5182C40.5593 99.6587 36.749 100.195 32.9386 100.195C15.1265 100.195 10.5702 94.4478 10.5702 75.175V45.1611H0V28.5321H10.5702V15.8112L31.4696 7.0625V28.5321H44.3696V45.1611V45.1738Z" fill="#F9F9F9"/>
<path d="M561.479 45.1738H548.579V75.8647C548.579 81.4716 551.529 82.6977 556.073 82.6977C557.795 82.6977 559.631 82.4295 561.479 82.4295V99.5182C557.669 99.6587 553.858 100.195 550.048 100.195C532.236 100.195 527.68 94.4478 527.68 75.175V45.1611H517.109V28.5321H527.68V15.8112L548.579 7.0625V28.5321H561.479V45.1611V45.1738Z" fill="#F9F9F9"/>
<path d="M333.175 26.4964C321.48 26.4964 311.025 32.5375 304.793 42.3207V28.5526H291.893V7.07031L270.993 15.8191V28.5399H260.423V35.1429C254.96 28.1567 245.147 26.4964 235.117 26.4964C227.863 26.4964 220.495 27.8757 214.848 31.4263C209.202 35.1046 205.265 41.1202 204.898 50.4181H224.432C225.419 44.4153 229.103 41.5289 234.876 41.5289C239.179 41.5289 244.952 43.5852 244.952 48.911C244.952 53.2918 242.99 54.6584 239.42 55.4758C227.312 58.2217 209.558 57.4427 204.026 70.5594V57.1106C204.026 43.5724 201.811 26.4836 181.554 26.4836C172.946 26.4836 166.669 30.4557 161.63 37.9783C158.187 29.3573 151.072 26.4836 143.084 26.4836C135.096 26.4836 128.577 31.1453 124.778 38.2465H124.514V28.5271H104.234V99.5133H125.134V64.9142C125.134 50.4181 128.324 45.6287 135.83 45.6287C141.477 45.6287 143.692 50.8268 143.692 59.1796V99.526H164.58V64.7865C164.58 53.2918 165.441 45.6414 174.404 45.6414C179.821 45.6414 183.126 50.1627 183.126 57.8258V99.526H204.014V89.7045C207.297 97.7508 214.952 101.582 224.053 101.582C231.674 101.582 239.662 99.1174 245.056 92.8336C245.308 95.1581 245.549 97.3421 246.295 99.526H267.298C264.853 93.9192 264.853 87.3544 264.853 81.3389V50.3032C264.853 47.8254 264.624 47.1741 264.211 45.1689H270.982V75.1828C270.982 94.4684 275.538 100.203 293.35 100.203C297.161 100.203 300.971 99.6665 304.781 99.526V86.9202C310.807 96.3714 320.987 101.57 333.657 101.57C347.911 101.57 361.557 94.4556 365.368 78.0565H345.823C343.849 83.2547 338.936 85.8474 333.91 85.8474C325.061 85.8474 320.023 79.4231 319.655 69.7164H366.492C367.468 45.6414 356.048 26.4964 333.187 26.4964H333.175ZM231.915 87.2267C227.244 87.2267 223.192 84.8895 223.192 79.1421C223.192 73.3948 227.117 71.364 231.788 70.1124C236.333 68.7458 241.75 68.3371 244.688 66.2808C245.17 80.9174 241.865 87.2139 231.903 87.2139L231.915 87.2267ZM299.376 82.6927C294.831 82.6927 291.893 81.4666 291.893 75.8597V45.1689H304.058C300.73 50.8907 298.767 56.1782 298.767 63.8286C298.767 71.0064 300.076 77.2774 302.44 82.5522C301.396 82.6288 300.374 82.7055 299.387 82.7055L299.376 82.6927ZM319.655 56.7147C320.883 48.0936 325.795 42.2058 333.175 42.2058C340.164 42.2058 345.214 48.7833 345.593 56.7147H319.655Z" fill="#F9F9F9"/>
<path d="M109 65C109 44.2923 92.2104 27.5 71.4941 27.5C50.7777 27.5 34 44.2923 34 65C34 85.7077 50.7896 102.5 71.4941 102.5C92.1985 102.5 109 85.7077 109 65Z" fill="#E20D18"/>
<path d="M74.3568 53.423C74.3568 53.423 66.6788 48.9401 64.9688 46.0281C68.7332 47.7651 74.1273 48.4165 76.3309 47.5097C78.5344 46.6029 77.1687 37.3177 75.2061 35.3125C77.5818 35.9639 81.6561 43.4227 82.0578 45.7982C84.0318 43.7164 87.5438 42.0816 92.7887 40.6384C86.4764 46.1814 84.7549 49.3616 85.0762 51.0858C89.0013 51.5583 95.0382 56.8331 95.0382 58.9277C90.5507 54.7258 84.5713 56.0796 83.4236 56.9864C83.9859 60.9968 83.3203 67.9958 82.8268 69.3624C81.0364 64.4452 79.9805 60.7924 78.018 58.3402C76.4801 56.4117 70.7301 63.7044 70.3055 64.9688C69.8235 63.334 72.05 55.6837 74.3339 53.423H74.3568Z" fill="#F9F9F9"/>
<path d="M419.109 64.2994C419.109 53.4049 422.139 44.4135 428.211 37.3507C434.282 30.2878 442.476 26.75 452.794 26.75C464.592 26.75 473.51 30.9009 479.547 39.2026C484.39 45.8823 486.823 54.1202 486.823 63.8907C486.823 74.8745 483.816 83.8914 477.802 90.9032C471.788 97.9278 463.467 101.427 452.851 101.427C443.383 101.427 435.716 98.5153 429.875 92.6785C422.69 85.4624 419.109 75.9984 419.109 64.2866V64.2994ZM439.63 64.2355C439.63 72.7544 444.6 82.9336 452.966 82.9336C462.32 82.9336 466.245 73.0353 466.245 63.9545C466.245 52.7025 459.474 45.5885 453.127 45.5885C444.6 45.5885 439.619 55.8444 439.619 64.2227L439.63 64.2355Z" fill="#F9F9F9"/>
<path d="M513.058 28.5455H523.755V45.1745H513.058V99.8766H492.044V45.3023H477.836V28.5455H492.044C492.044 28.5455 492.033 24.0243 492.767 18.5324C493.249 14.9435 494.145 12.0187 495.476 9.74531C499.355 3.07838 508.192 -0.0379606 525.947 2.87403L526.016 18.443C520.404 17.9832 513.345 16.0546 513.058 28.5455Z" fill="#F9F9F9"/>
<path d="M362.133 77.7421H383.285C384.605 82.3655 388.564 85.865 393.625 85.865C399.72 85.865 402.44 82.2122 402.44 79.2747C402.44 75.673 400.603 74.1787 390.412 72.0202C369.983 67.7033 362.89 62.3902 362.89 49.2096C362.89 20.805 402.417 27.4208 407.099 29.2344C413.848 31.8526 418.335 38.4685 421.262 47.677L399.777 47.8686C399.077 44.9821 394.762 41.521 390.745 41.521C386.119 41.521 383.56 43.7944 383.56 47.0512C383.56 52.0195 390.24 52.6325 395.209 53.3094C412.298 55.6595 416.855 59.8997 419.896 65.2384C422.306 69.4659 425.015 78.023 419.735 88.049C416.568 94.0645 409.59 100.578 392.489 100.578C369.96 100.578 364.474 90.1052 362.133 77.7421Z" fill="#F9F9F9"/>
<path d="M593.829 13.7095C593.829 20.8592 588.797 26.5125 582.379 26.5125C575.962 26.5125 570.875 20.8384 570.875 13.7095C570.875 6.58049 575.98 0.96875 582.452 0.96875C588.924 0.96875 593.829 6.5597 593.829 13.7095ZM573.737 13.7095C573.737 19.3836 577.475 23.8729 582.452 23.8729C587.284 23.9561 590.966 19.3628 590.966 13.7718C590.966 8.18087 587.284 3.52521 582.306 3.52521C577.329 3.52521 573.719 8.09773 573.719 13.6887L573.737 13.7095ZM580.611 20.2981H578.022V7.55734C579.043 7.41185 580.483 7.16244 582.306 7.16244C584.421 7.16244 585.369 7.55734 586.117 8.18087C586.791 8.72126 587.265 9.65655 587.265 10.9036C587.265 12.4624 586.244 13.4601 584.95 13.9381V14.0836C586.044 14.4785 586.591 15.4761 586.919 17.1804C587.265 19.1134 587.539 19.82 587.739 20.2773H585.023C584.676 19.82 584.476 18.7185 584.129 17.1804C583.929 15.8502 583.254 15.2475 581.814 15.2475H580.592V20.2981H580.611ZM580.684 13.1691H581.905C583.327 13.1691 584.494 12.6287 584.494 11.2985C584.494 10.1346 583.747 9.36557 582.106 9.36557C581.431 9.36557 580.957 9.44871 580.684 9.51106V13.1691Z" fill="#F9F9F9"/>
</svg>
