<svg width="57" height="20" viewBox="0 0 57 20" fill="none" xmlns="http://www.w3.org/2000/svg">
<path d="M10.0029 19.2458V15.2783H11.4996C11.764 15.2783 11.9633 15.2905 12.1036 15.317C12.2988 15.3495 12.4615 15.4105 12.5937 15.502C12.7259 15.5935 12.8316 15.7216 12.9109 15.8843C12.9902 16.049 13.0309 16.23 13.0309 16.4252C13.0309 16.7628 12.9231 17.0475 12.7096 17.2814C12.494 17.5152 12.1077 17.6311 11.5464 17.6311H10.5296V19.2437H10.005L10.0029 19.2458ZM10.5276 17.1634H11.5525C11.8921 17.1634 12.1321 17.1004 12.2744 16.9743C12.4168 16.8482 12.4879 16.6693 12.4879 16.4415C12.4879 16.2748 12.4452 16.1344 12.3619 16.0145C12.2785 15.8965 12.1666 15.8172 12.0304 15.7806C11.9429 15.7582 11.7782 15.746 11.5403 15.746H10.5256V17.1634H10.5276Z" fill="black"/>
<path d="M15.5223 19.2456V18.8227C15.2986 19.148 14.9936 19.3107 14.6092 19.3107C14.4405 19.3107 14.2818 19.2782 14.1334 19.2131C13.987 19.148 13.8772 19.0667 13.806 18.967C13.7348 18.8694 13.684 18.7474 13.6555 18.6051C13.6352 18.5095 13.625 18.357 13.625 18.1496V16.3682H14.1131V17.9625C14.1131 18.2167 14.1232 18.3875 14.1436 18.477C14.1741 18.6051 14.2391 18.7047 14.3388 18.7779C14.4384 18.8511 14.5604 18.8877 14.7069 18.8877C14.8533 18.8877 14.9895 18.8511 15.1176 18.7759C15.2457 18.7007 15.3373 18.599 15.3901 18.4709C15.443 18.3407 15.4694 18.1536 15.4694 17.9096V16.3702H15.9575V19.2456H15.5223Z" fill="black"/>
<path d="M16.7217 19.2462V16.3707H17.1609V16.7795C17.3724 16.4643 17.6774 16.3057 18.076 16.3057C18.2489 16.3057 18.4075 16.3362 18.5539 16.3992C18.7003 16.4602 18.8081 16.5436 18.8793 16.6432C18.9505 16.7429 19.0013 16.8649 19.0318 17.0032C19.0501 17.0926 19.0582 17.2513 19.0582 17.477V19.2441H18.5702V17.4953C18.5702 17.296 18.5519 17.1476 18.5132 17.0499C18.4746 16.9523 18.4075 16.873 18.3119 16.8141C18.2143 16.7551 18.1025 16.7266 17.9723 16.7266C17.7649 16.7266 17.5859 16.7917 17.4355 16.9239C17.285 17.056 17.2097 17.3062 17.2097 17.6742V19.2441H16.7217V19.2462Z" fill="black"/>
<path d="M20.868 18.811L20.9392 19.2421C20.803 19.2706 20.6789 19.2848 20.5711 19.2848C20.3942 19.2848 20.258 19.2563 20.1604 19.2014C20.0627 19.1465 19.9936 19.0713 19.955 18.9798C19.9163 18.8882 19.896 18.6971 19.896 18.4043V16.751H19.5381V16.3727H19.896V15.661L20.38 15.3682V16.3727H20.8701V16.751H20.38V18.4327C20.38 18.571 20.3881 18.6605 20.4064 18.7012C20.4227 18.7398 20.4512 18.7723 20.4898 18.7967C20.5284 18.8191 20.5833 18.8313 20.6565 18.8313C20.7114 18.8313 20.7826 18.8252 20.8701 18.813L20.868 18.811Z" fill="black"/>
<path d="M21.1631 17.8085C21.1631 17.2757 21.3115 16.8812 21.6064 16.6249C21.8545 16.4114 22.1555 16.3057 22.5113 16.3057C22.9058 16.3057 23.2292 16.4358 23.4813 16.6941C23.7315 16.9523 23.8575 17.3102 23.8575 17.7678C23.8575 18.1379 23.8026 18.4287 23.6908 18.6402C23.581 18.8517 23.4183 19.0164 23.2068 19.1343C22.9953 19.2523 22.7635 19.3113 22.5134 19.3113C22.1107 19.3113 21.7854 19.1831 21.5373 18.9249C21.2892 18.6666 21.1651 18.2945 21.1651 17.8105L21.1631 17.8085ZM21.6633 17.8085C21.6633 18.1765 21.7426 18.4531 21.9033 18.6361C22.0639 18.8191 22.2653 18.9106 22.5093 18.9106C22.7533 18.9106 22.9526 18.8191 23.1133 18.6341C23.2739 18.449 23.3532 18.1704 23.3532 17.7922C23.3532 17.4363 23.2719 17.1679 23.1112 16.9849C22.9485 16.8019 22.7493 16.7103 22.5093 16.7103C22.2693 16.7103 22.0639 16.8019 21.9033 16.9828C21.7426 17.1638 21.6633 17.4404 21.6633 17.8085Z" fill="black"/>
<path d="M27.8327 19.2458V18.8838C27.6497 19.1685 27.3833 19.3109 27.0294 19.3109C26.7997 19.3109 26.5902 19.2478 26.397 19.1217C26.2059 18.9957 26.0554 18.8187 25.9496 18.593C25.8439 18.3673 25.791 18.107 25.791 17.8121C25.791 17.5173 25.8378 17.2651 25.9354 17.0312C26.031 16.7974 26.1754 16.6184 26.3665 16.4944C26.5577 16.3703 26.7712 16.3073 27.0071 16.3073C27.1799 16.3073 27.3345 16.3439 27.4707 16.4171C27.607 16.4903 27.7168 16.5859 27.8002 16.7018V15.2783H28.2842V19.2458H27.8327ZM26.2933 17.8121C26.2933 18.1802 26.3706 18.4547 26.5251 18.6378C26.6797 18.8208 26.8627 18.9102 27.0742 18.9102C27.2857 18.9102 27.4687 18.8228 27.6171 18.6479C27.7656 18.473 27.8408 18.2087 27.8408 17.8508C27.8408 17.4583 27.7656 17.1695 27.6131 16.9845C27.4606 16.7994 27.2755 16.7079 27.0518 16.7079C26.8281 16.7079 26.6553 16.7954 26.5089 16.9723C26.3645 17.1492 26.2913 17.4278 26.2913 17.8081L26.2933 17.8121Z" fill="black"/>
<path d="M31.0179 18.3208L31.5222 18.3839C31.4429 18.6787 31.2965 18.9065 31.0809 19.0692C30.8654 19.2319 30.5929 19.3132 30.2573 19.3132C29.8364 19.3132 29.5029 19.1831 29.2568 18.9248C29.0108 18.6665 28.8867 18.3025 28.8867 17.8348C28.8867 17.3671 29.0108 16.9767 29.2609 16.7082C29.511 16.4398 29.8323 16.3076 30.2309 16.3076C30.6295 16.3076 30.9284 16.4378 31.1724 16.7001C31.4165 16.9624 31.5385 17.3305 31.5385 17.8043C31.5385 17.8328 31.5385 17.8755 31.5364 17.9345H29.3931C29.4114 18.2497 29.5009 18.4917 29.6615 18.6604C29.8222 18.8292 30.0235 18.9126 30.2614 18.9126C30.4404 18.9126 30.5929 18.8658 30.7189 18.7723C30.845 18.6787 30.9447 18.5283 31.0199 18.3229L31.0179 18.3208ZM29.4175 17.5338H31.022C30.9996 17.2919 30.9386 17.1109 30.8369 16.9889C30.6823 16.8018 30.481 16.7082 30.2329 16.7082C30.0092 16.7082 29.8201 16.7835 29.6696 16.9319C29.5171 17.0824 29.4317 17.2817 29.4154 17.5318L29.4175 17.5338Z" fill="black"/>
<path d="M34.473 19.2456L33.3789 16.3701H33.8934L34.5096 18.0925C34.5767 18.2776 34.6377 18.4708 34.6946 18.6721C34.7373 18.5196 34.7983 18.3386 34.8756 18.1251L35.5141 16.3701H36.0144L34.9264 19.2456H34.4709H34.473Z" fill="black"/>
<path d="M38.4134 18.3208L38.9177 18.3839C38.8384 18.6787 38.692 18.9065 38.4764 19.0692C38.2609 19.2319 37.9884 19.3132 37.6528 19.3132C37.2319 19.3132 36.8984 19.1831 36.6523 18.9248C36.4063 18.6665 36.2822 18.3025 36.2822 17.8348C36.2822 17.3671 36.4063 16.9767 36.6564 16.7082C36.9045 16.4418 37.2278 16.3076 37.6264 16.3076C38.025 16.3076 38.3239 16.4378 38.5679 16.7001C38.812 16.9624 38.934 17.3305 38.934 17.8043C38.934 17.8328 38.934 17.8755 38.9319 17.9345H36.7886C36.8069 18.2497 36.8964 18.4917 37.057 18.6604C37.2177 18.8292 37.419 18.9126 37.6569 18.9126C37.8359 18.9126 37.9884 18.8658 38.1145 18.7723C38.2405 18.6787 38.3402 18.5283 38.4154 18.3229L38.4134 18.3208ZM36.813 17.5338H38.4175C38.3951 17.2919 38.3341 17.1109 38.2324 16.9889C38.0779 16.8018 37.8765 16.7082 37.6284 16.7082C37.4047 16.7082 37.2156 16.7835 37.0651 16.9319C36.9126 17.0824 36.8272 17.2817 36.811 17.5318L36.813 17.5338Z" fill="black"/>
<path d="M39.5283 19.2462V16.3707H39.9676V16.7795C40.1791 16.4643 40.4841 16.3057 40.8827 16.3057C41.0555 16.3057 41.2141 16.3362 41.3606 16.3992C41.507 16.4602 41.6147 16.5436 41.6859 16.6432C41.7571 16.7429 41.8079 16.8649 41.8384 17.0032C41.8567 17.0926 41.8649 17.2513 41.8649 17.477V19.2441H41.3768V17.4953C41.3768 17.296 41.3585 17.1476 41.3199 17.0499C41.2812 16.9523 41.2141 16.873 41.1186 16.8141C41.0209 16.7551 40.9091 16.7266 40.779 16.7266C40.5715 16.7266 40.3926 16.7917 40.2421 16.9239C40.0916 17.056 40.0164 17.3062 40.0164 17.6742V19.2441H39.5283V19.2462Z" fill="black"/>
<path d="M43.6747 18.811L43.7458 19.2421C43.6096 19.2706 43.4855 19.2848 43.3778 19.2848C43.2009 19.2848 43.0646 19.2563 42.967 19.2014C42.8694 19.1465 42.8002 19.0713 42.7616 18.9798C42.723 18.8882 42.7026 18.6971 42.7026 18.4043V16.751H42.3447V16.3727H42.7026V15.661L43.1866 15.3682V16.3727H43.6767V16.751H43.1866V18.4327C43.1866 18.571 43.1948 18.6605 43.2131 18.7012C43.2293 18.7398 43.2578 18.7723 43.2964 18.7967C43.3351 18.8191 43.39 18.8313 43.4632 18.8313C43.5181 18.8313 43.5893 18.8252 43.6767 18.813L43.6747 18.811Z" fill="black"/>
<path d="M46.027 18.8924C45.846 19.0449 45.6731 19.1548 45.5064 19.2178C45.3396 19.2808 45.1607 19.3134 44.9695 19.3134C44.6543 19.3134 44.4103 19.2361 44.2415 19.0815C44.0727 18.927 43.9873 18.7297 43.9873 18.4898C43.9873 18.3495 44.0198 18.2214 44.0829 18.1034C44.148 17.9875 44.2313 17.894 44.335 17.8228C44.4388 17.7516 44.5547 17.6987 44.6848 17.6621C44.7804 17.6377 44.9248 17.6133 45.118 17.5889C45.5104 17.5421 45.8012 17.4852 45.9863 17.4201C45.9863 17.353 45.9883 17.3103 45.9883 17.292C45.9883 17.0927 45.9415 16.9544 45.85 16.8731C45.726 16.7633 45.5409 16.7084 45.2949 16.7084C45.0651 16.7084 44.8963 16.7491 44.7865 16.8284C44.6767 16.9097 44.5974 17.05 44.5445 17.2554L44.0686 17.1903C44.1114 16.987 44.1825 16.8223 44.2822 16.6962C44.3818 16.5701 44.5242 16.4745 44.7133 16.4054C44.9004 16.3383 45.118 16.3037 45.3661 16.3037C45.6141 16.3037 45.8114 16.3322 45.9639 16.3912C46.1164 16.4501 46.2303 16.5213 46.3015 16.6087C46.3727 16.6962 46.4235 16.806 46.454 16.9402C46.4703 17.0236 46.4784 17.172 46.4784 17.3896V18.0383C46.4784 18.4918 46.4886 18.7785 46.5089 18.8985C46.5292 19.0185 46.5699 19.1344 46.633 19.2442H46.1246C46.0737 19.1426 46.0412 19.0246 46.027 18.8904V18.8924ZM45.9863 17.8045C45.8094 17.8756 45.545 17.9387 45.1912 17.9895C44.9919 18.018 44.8495 18.0505 44.7662 18.0871C44.6828 18.1237 44.6197 18.1766 44.573 18.2458C44.5282 18.3149 44.5059 18.3922 44.5059 18.4776C44.5059 18.6077 44.5547 18.7155 44.6543 18.8029C44.7519 18.8904 44.8963 18.9331 45.0854 18.9331C45.2745 18.9331 45.4393 18.8924 45.5857 18.809C45.7321 18.7277 45.8399 18.6138 45.907 18.4715C45.9599 18.3617 45.9863 18.199 45.9863 17.9834V17.8045Z" fill="black"/>
<path d="M7.39222 5.6331H5.44814V10.0012C5.44814 10.7617 5.89349 10.9264 6.5788 10.9264C6.83706 10.9264 7.11565 10.8898 7.39222 10.8898V13.204C6.81672 13.2223 6.24529 13.2955 5.6698 13.2955C2.98551 13.2955 2.3002 12.5187 2.3002 9.90763V5.63107H0.709961V3.59345H2.30223V1.87103L5.45017 0.6875V3.59345H7.39425V5.63107L7.39222 5.6331Z" fill="black"/>
<path d="M50.9002 3.3168C49.1391 3.3168 47.5631 4.13429 46.6236 5.45814V3.59337H44.6796V0.689453L41.5316 1.87298V3.5954H39.9393V4.49017C39.1158 3.54456 37.6394 3.31884 36.1264 3.31884C35.0344 3.31884 33.9241 3.50389 33.072 3.98584C32.22 4.48406 31.6282 5.29952 31.5733 6.55829H34.5159C34.6643 5.74487 35.2195 5.35443 36.0898 5.35443C36.7385 5.35443 37.6089 5.63302 37.6089 6.3529C37.6089 6.94466 37.312 7.13175 36.7751 7.24156C34.951 7.6137 32.2769 7.50796 31.4432 9.28325V7.46322C31.4432 5.63099 31.1097 3.3168 28.0573 3.3168C26.7619 3.3168 25.8143 3.85366 25.0558 4.87247C24.5372 3.70521 23.4635 3.3168 22.2617 3.3168C21.0598 3.3168 20.0776 3.94721 19.5042 4.90908H19.4655V3.59337H16.4111V13.2019H19.5591V8.51863C19.5591 6.55626 20.041 5.90755 21.1717 5.90755C22.0217 5.90755 22.3552 6.61116 22.3552 7.74182V13.2019H25.5032V8.50033C25.5032 6.94466 25.6333 5.90755 26.9836 5.90755C27.8011 5.90755 28.2973 6.51965 28.2973 7.55676V13.2019H31.4452V11.872C31.9394 12.962 33.0924 13.4805 34.463 13.4805C35.6099 13.4805 36.8138 13.147 37.6272 12.297C37.6638 12.6101 37.7024 12.907 37.8123 13.2039H40.9765C40.6084 12.4454 40.6084 11.5568 40.6084 10.7413V6.53999C40.6084 6.20445 40.5738 5.90349 40.5108 5.63302H41.5316V9.90959C41.5316 12.5207 42.2169 13.2975 44.9012 13.2975C45.4767 13.2975 46.0481 13.2243 46.6236 13.206V11.4998C47.5326 12.7789 49.0639 13.4825 50.9734 13.4825C53.1208 13.4825 55.1768 12.5207 55.7502 10.3H52.8056C52.5087 11.0036 51.7685 11.3554 51.01 11.3554C49.676 11.3554 48.9175 10.4851 48.8626 9.17141H55.917C56.0634 5.91162 54.343 3.32087 50.8982 3.32087L50.9002 3.3168ZM35.6465 11.5385C34.9429 11.5385 34.3328 11.2233 34.3328 10.4444C34.3328 9.66556 34.9246 9.39103 35.6282 9.22224C36.3135 9.03719 37.129 8.98229 37.5723 8.70369C37.6455 10.6844 37.1473 11.5364 35.6465 11.5364V11.5385ZM45.8102 10.9264C45.1249 10.9264 44.6816 10.7616 44.6816 10.0011V5.63302H46.5138C46.0115 6.40781 45.7167 7.33714 45.7167 8.37222C45.7167 9.34426 45.9139 10.1923 46.2698 10.906C46.1132 10.9162 45.9587 10.9264 45.8102 10.9264ZM48.8646 7.41035C49.0497 6.24309 49.7899 5.44797 50.9022 5.44797C51.9556 5.44797 52.7162 6.33867 52.7731 7.41035H48.8666H48.8646Z" fill="black"/>
<path d="M17.2367 8.23207C17.2367 5.22241 14.7964 2.78418 11.7868 2.78418C8.7771 2.78418 6.33887 5.22444 6.33887 8.23207C6.33887 11.2397 8.77913 13.68 11.7868 13.68C14.7944 13.68 17.2367 11.2397 17.2367 8.23207Z" fill="black"/>
<path d="M12.1506 6.96313C12.1506 6.96313 10.9956 6.35713 10.7373 5.96262C11.3047 6.19851 12.1161 6.28595 12.4496 6.16394C12.781 6.04193 12.5756 4.78316 12.2808 4.5127C12.6387 4.60014 13.2528 5.61081 13.3118 5.93212C13.6087 5.64945 14.1374 5.42779 14.9285 5.23257C13.9768 5.98295 13.7185 6.41203 13.7673 6.64589C14.3591 6.70893 15.2681 7.42474 15.2681 7.70741C14.5929 7.13801 13.6921 7.32307 13.5192 7.44508C13.6046 7.98804 13.5029 8.93567 13.4297 9.12073C13.1593 8.45576 13.0006 7.9616 12.7058 7.6281C12.474 7.3678 11.6077 8.35408 11.5446 8.52693C11.4735 8.30527 11.807 7.27019 12.1527 6.96313H12.1506Z" fill="white"/>
</svg>
